<svg xmlns="http://www.w3.org/2000/svg" viewBox="0 0 960 540">
  <defs>
    <linearGradient id="bg" x1="0" y1="0" x2="1" y2="1">
      <stop offset="0" stop-color="#1e1b4b"/>
      <stop offset="1" stop-color="#4c1d95"/>
    </linearGradient>
  </defs>
  <rect width="960" height="540" fill="url(#bg)"/>
  <circle cx="120" cy="90" r="1.6" fill="#fff" opacity="0.8"/>
  <circle cx="200" cy="60" r="1.2" fill="#fff" opacity="0.6"/>
  <circle cx="340" cy="120" r="1.8" fill="#fff" opacity="0.7"/>
  <circle cx="500" cy="50" r="1.3" fill="#fff" opacity="0.5"/>
  <circle cx="700" cy="100" r="1.6" fill="#fff" opacity="0.8"/>
  <circle cx="820" cy="70" r="1.2" fill="#fff" opacity="0.6"/>
  <circle cx="880" cy="150" r="1.8" fill="#fff" opacity="0.7"/>
  <circle cx="60" cy="200" r="1.3" fill="#fff" opacity="0.5"/>
  <path d="M0 460 A560 560 0 0 1 960 460 L960 540 L0 540 Z" fill="#0f172a" opacity="0.55"/>
  <g transform="translate(480,255) rotate(-18)">
    <rect x="-150" y="-14" width="80" height="28" rx="3" fill="#a5b4fc"/>
    <rect x="70" y="-14" width="80" height="28" rx="3" fill="#a5b4fc"/>
    <line x1="-70" y1="-8" x2="-30" y2="-8" stroke="#312e81" stroke-width="2"/>
    <line x1="-70" y1="0" x2="-30" y2="0" stroke="#312e81" stroke-width="2"/>
    <line x1="-70" y1="8" x2="-30" y2="8" stroke="#312e81" stroke-width="2"/>
    <line x1="30" y1="-8" x2="70" y2="-8" stroke="#312e81" stroke-width="2"/>
    <line x1="30" y1="0" x2="70" y2="0" stroke="#312e81" stroke-width="2"/>
    <line x1="30" y1="8" x2="70" y2="8" stroke="#312e81" stroke-width="2"/>
    <rect x="-32" y="-26" width="64" height="52" rx="8" fill="#e0e7ff"/>
    <circle cx="0" cy="0" r="9" fill="#7c3aed"/>
    <path d="M-8 -34 L0 -50 L8 -34 Z" fill="#c7d2fe"/>
  </g>
  <g opacity="0.6" stroke="#c7d2fe" stroke-width="2" fill="none">
    <path d="M560 230 q40 20 40 55"/>
    <path d="M590 218 q55 25 55 78"/>
  </g>
</svg>
